<?xml version="1.0" standalone="no"?>
<!DOCTYPE svg PUBLIC "-//W3C//DTD SVG 20010904//EN"
 "http://www.w3.org/TR/2001/REC-SVG-20010904/DTD/svg10.dtd">
<svg version="1.0" xmlns="http://www.w3.org/2000/svg"
 width="438.000000pt" height="438.000000pt" viewBox="0 0 438.000000 438.000000"
 preserveAspectRatio="xMidYMid meet">
<metadata>
Created by potrace 1.11, written by Peter Selinger 2001-2013
</metadata>
<g transform="translate(0.000000,438.000000) scale(0.100000,-0.100000)"
fill="#000000" stroke="none">
<path d="M2185 3884 c-267 -38 -408 -79 -600 -174 -181 -90 -302 -177 -445
-320 -307 -307 -478 -696 -497 -1130 -12 -299 41 -547 178 -825 88 -180 176
-302 319 -445 143 -143 265 -231 445 -319 204 -101 357 -146 585 -172 393 -45
848 80 1175 324 85 63 282 252 291 279 8 26 -21 68 -47 68 -14 0 -65 -42 -138
-112 -269 -260 -576 -407 -934 -449 -131 -15 -362 -6 -487 20 -641 131 -1126
621 -1257 1266 -14 69 -18 137 -18 295 0 177 3 220 23 314 137 640 615 1116
1252 1247 123 26 374 36 495 20 197 -25 411 -94 582 -188 89 -48 116 -50 135
-8 18 40 -10 67 -134 128 -136 67 -325 132 -463 158 -96 19 -390 33 -460 23z"/>
<path d="M2185 3484 c-293 -43 -554 -174 -754 -378 -88 -91 -100 -122 -59
-150 12 -9 27 -16 33 -16 6 0 54 42 106 93 183 181 383 287 627 333 120 22
375 15 482 -14 438 -118 747 -427 861 -861 26 -99 36 -335 20 -452 -42 -291
-211 -575 -449 -754 -193 -145 -392 -218 -655 -240 -80 -7 -107 -21 -107 -55
0 -10 8 -26 17 -36 15 -15 32 -16 128 -11 307 17 611 159 830 388 231 243 355
552 355 884 0 523 -324 1000 -805 1186 -161 63 -254 81 -435 84 -91 2 -178 1
-195 -1z"/>
<path d="M3836 3427 c-23 -23 -24 -31 -31 -251 -10 -305 6 -452 62 -579 26
-57 71 -107 98 -107 8 0 17 -10 22 -22 14 -42 4 -349 -22 -683 -14 -181 -27
-387 -28 -457 -2 -126 -2 -127 26 -156 30 -32 85 -52 138 -52 42 0 134 42 142
65 12 29 7 153 -13 390 -34 389 -40 484 -41 656 -1 197 9 245 50 254 59 13
111 99 130 215 6 36 11 202 11 368 0 260 -2 309 -16 338 -26 55 -82 60 -118
11 -20 -27 -21 -44 -26 -265 -5 -236 -5 -237 -27 -240 l-23 -3 0 233 c0 202
-2 238 -18 268 -18 37 -43 47 -89 35 -46 -11 -53 -51 -53 -305 0 -215 -1 -231
-17 -228 -17 3 -18 20 -14 224 4 233 -3 285 -39 304 -33 18 -79 12 -104 -13z
m84 -289 c3 -141 7 -258 10 -261 35 -31 92 -35 120 -7 19 19 20 33 20 263 0
234 5 277 29 263 8 -5 11 -83 11 -250 0 -274 2 -281 71 -292 28 -5 41 -1 62
17 l26 24 7 237 c4 130 10 242 14 249 4 6 13 8 19 5 8 -5 11 -105 11 -334 0
-412 -11 -470 -101 -514 -53 -26 -66 -45 -79 -116 -17 -88 -8 -374 24 -742 14
-157 26 -325 28 -373 3 -83 1 -90 -21 -108 -33 -27 -119 -26 -155 2 -24 19
-26 26 -26 97 0 41 12 225 27 406 29 365 37 765 16 801 -6 11 -28 29 -49 40
-50 26 -79 85 -104 206 -17 79 -20 136 -20 352 0 264 5 301 38 295 15 -3 18
-30 22 -260z"/>
<path d="M193 3342 c-102 -36 -165 -108 -184 -207 -25 -131 9 -463 65 -641 27
-86 72 -158 104 -168 28 -9 32 -32 32 -207 0 -140 -8 -277 -40 -704 -6 -71
-10 -187 -10 -256 l0 -127 35 -31 c36 -31 57 -36 145 -31 19 1 54 13 77 26 34
20 44 32 49 62 4 21 -7 208 -26 442 -36 432 -45 741 -22 793 6 15 22 31 35 36
34 13 73 63 95 124 75 198 94 647 33 764 -25 50 -76 98 -126 119 -61 26 -198
29 -262 6z m256 -70 c45 -22 60 -36 80 -77 26 -49 26 -54 26 -260 -1 -334 -51
-537 -138 -559 -15 -3 -32 -20 -43 -43 -33 -67 -31 -340 5 -775 17 -201 31
-397 31 -435 l0 -69 -35 -17 c-41 -20 -79 -21 -123 -6 -52 18 -52 26 -10 579
11 151 21 367 22 480 1 223 -6 264 -51 281 -31 12 -58 58 -88 150 -44 140 -59
249 -59 449 -1 178 0 186 23 223 67 108 231 144 360 79z"/>
<path d="M1470 2440 l0 -50 40 0 40 0 0 -125 0 -125 55 0 55 0 0 75 0 75 60 0
60 0 0 30 0 30 -60 0 c-53 0 -60 2 -60 20 0 19 7 20 95 20 l95 0 0 50 0 50
-190 0 -190 0 0 -50z"/>
<path d="M1870 2315 l0 -175 55 0 55 0 0 175 0 175 -55 0 -55 0 0 -175z"/>
<path d="M2010 2316 l0 -176 60 0 60 0 0 57 0 57 58 -57 58 -57 162 0 c204 0
222 7 222 87 0 35 -7 51 -44 97 -25 30 -42 57 -39 60 4 3 44 6 90 6 l83 0 0
-125 0 -125 55 0 55 0 0 125 0 125 60 0 60 0 0 50 0 50 -260 0 c-247 0 -261
-1 -280 -20 -22 -22 -27 -78 -9 -113 6 -12 28 -39 48 -60 30 -31 33 -39 21
-47 -22 -14 -184 -12 -198 2 -19 19 -14 28 18 40 63 21 79 107 31 160 l-29 33
-141 3 -141 4 0 -176z m234 69 c12 -33 -4 -45 -60 -45 -53 0 -54 0 -54 30 0
30 1 30 54 30 39 0 55 -4 60 -15z"/>
</g>
</svg>
